<svg xmlns="http://www.w3.org/2000/svg" width="2426.274" height="1876.074" viewBox="0 0 2426.274 1876.074">
  <path id="back" d="M-1303.576,758.528H-2014.5c-.206,0-21.041-.309-57.216-1.658-33.385-1.244-87.016-3.656-152.93-8.076-74.1-4.969-148.312-11.41-220.57-19.145-90.329-9.67-177.851-21.4-260.135-34.867C-2914.8,660.5-3092,614.913-3232.019,559.275c-19.96-7.931-39.434-16.182-57.88-24.522-18.938-8.563-37.325-17.462-54.65-26.45-17.776-9.222-34.928-18.794-50.981-28.45-16.458-9.9-32.229-20.169-46.875-30.523-15-10.6-29.239-21.594-42.328-32.668a504.739,504.739,0,0,1-37.344-34.887A416.23,416.23,0,0,1-3554,344.6a352.387,352.387,0,0,1-26.059-39.541c-14.4-25.529-27.948-51.456-40.273-77.059-12.063-25.063-23.283-50.5-33.346-75.609-9.845-24.562-18.859-49.491-26.791-74.094-7.752-24.045-14.685-48.442-20.606-72.513-5.783-23.511-10.76-47.354-14.791-70.867-3.935-22.943-7.08-46.21-9.347-69.156-2.21-22.364-3.648-45.033-4.273-67.379-.608-21.758-.463-43.808.431-65.537.87-21.138,2.473-42.546,4.764-63.629,2.225-20.483,5.162-41.227,8.727-61.657,3.459-19.818,7.6-39.876,12.32-59.618,4.569-19.128,9.8-38.479,15.542-57.515,5.553-18.4,11.741-37.026,18.394-55.346,6.42-17.678,13.444-35.548,20.876-53.112,7.161-16.922,14.9-34.018,22.987-50.812,7.78-16.146,16.1-32.446,24.728-48.449,16.2-30.041,34.1-60.167,53.2-89.54,17.362-26.7,36.107-53.379,55.717-79.3a1438.691,1438.691,0,0,1,107.142-125.775c14.96-15.644,30.269-30.93,45.5-45.432,12.19-11.607,24.358-22.743,36.167-33.1,20-17.542,32.37-27.016,32.49-27.106h1008.383c-23.62,51.848-59.636,134.464-97.079,233.611-44.048,116.638-79.56,228.148-105.549,331.433-7.612,30.252-14.486,60.154-20.43,88.876-6.283,30.359-11.7,60.24-16.1,88.813-4.633,30.06-8.27,59.5-10.81,87.514-2.662,29.36-4.19,57.951-4.543,84.979-.368,28.249.539,55.572,2.695,81.209,1.113,13.228,2.581,26.284,4.364,38.8,1.82,12.775,4.02,25.358,6.538,37.4,2.569,12.277,5.54,24.334,8.833,35.838,3.355,11.722,7.14,23.2,11.249,34.123,4.185,11.122,8.823,21.974,13.786,32.254,5.054,10.468,10.586,20.639,16.445,30.23a319.457,319.457,0,0,0,22.581,32.347,300.621,300.621,0,0,0,26.516,29.17,297.052,297.052,0,0,0,30.642,25.753A309.7,309.7,0,0,0-2338.03,196.9a340.439,340.439,0,0,0,39.46,18.195,391.543,391.543,0,0,0,44.154,14.053,466.666,466.666,0,0,0,49.038,9.669c17.244,2.475,35.449,4.172,54.112,5.045,40.823,1.909,82.157,5.155,122.855,9.648,39.172,4.324,78.815,9.921,117.826,16.634,37.457,6.446,75.336,14.094,112.585,22.734,35.674,8.275,71.719,17.678,107.133,27.949,33.82,9.809,67.959,20.669,101.468,32.278,31.9,11.051,64.06,23.069,95.591,35.721,29.892,11.993,60.006,24.872,89.5,38.277,27.826,12.646,55.82,26.086,83.2,39.949l17.525,291.476Z" transform="translate(3729.851 1117.546)" fill="#fff"/>
</svg>
